<svg viewBox="0 0 128 128" xmlns="http://www.w3.org/2000/svg">
  <defs>
    <linearGradient id="ideabytes-gold" x1="0%" y1="0%" x2="100%" y2="100%">
      <stop offset="0%" style="stop-color:#D4AF37;stop-opacity:1" />
      <stop offset="100%" style="stop-color:#C9A961;stop-opacity:1" />
    </linearGradient>
  </defs>

  <!-- Background circle -->
  <circle cx="64" cy="64" r="62" fill="#faf8f3" stroke="#e8dcc8" stroke-width="1"/>

  <!-- Large lowercase 'b' shape -->
  <g fill="url(#ideabytes-gold)">
    <!-- Vertical stem -->
    <rect x="38" y="35" width="12" height="65" rx="6"/>

    <!-- Curved bowl -->
    <path d="M 50 50 Q 70 48 72 65 Q 73 85 55 88 Q 40 90 38 75 L 50 75 Q 52 82 55 82 Q 65 81 65 65 Q 64 55 50 55 Z" fill="url(#ideabytes-gold)"/>
  </g>

  <!-- IoT Cloud symbol (top right) -->
  <g fill="url(#ideabytes-gold)" opacity="0.95">
    <!-- Cloud shape -->
    <path d="M 78 25 Q 85 20 92 25 Q 98 23 100 30 Q 103 28 105 35 Q 100 42 92 42 Q 85 45 78 42 Q 72 40 72 32 Z"/>

    <!-- IoT text inside cloud -->
    <text x="88" y="36" font-size="10" font-weight="bold" fill="#2c2c2c" text-anchor="middle">IoT</text>
  </g>

  <!-- Decorative dots -->
  <circle cx="48" cy="90" r="2" fill="url(#ideabytes-gold)" opacity="0.6"/>
  <circle cx="68" cy="92" r="2" fill="url(#ideabytes-gold)" opacity="0.6"/>
</svg>