<svg xmlns="http://www.w3.org/2000/svg" viewBox="0 0 24 24" fill="#ffffff" width="24" height="24"><path d="M12 2.163c3.204 0 3.584.012 4.85.07 3.252.148 4.771 1.691 4.919 4.919.058 1.266.069 1.646.069 4.85 0 3.204-.012 3.584-.07 4.85-.149 3.225-1.664 4.771-4.919 4.919-1.266.058-1.644.07-4.85.07-3.204 0-3.584-.012-4.85-.07-3.251-.149-4.771-1.699-4.919-4.92-.058-1.265-.07-1.644-.07-4.849 0-3.204.013-3.583.07-4.849.149-3.227 1.664-4.771 4.919-4.919 1.266-.057 1.645-.069 4.849-.069zm0-2.163c-3.259 0-3.667.014-4.947.072-4.358.2-6.78 2.618-6.98 6.98-.058 1.28-.072 1.688-.072 4.947 0 3.259.014 3.668.072 4.948.2 4.358 2.618 6.78 6.98 6.98 1.28.058 1.689.072 4.948.072 3.259 0 3.668-.014 4.948-.072 4.354-.2 6.782-2.618 6.979-6.98.057-1.28.071-1.689.071-4.948 0-3.259-.014-3.667-.072-4.947-.196-4.354-2.617-6.78-6.979-6.98-1.281-.059-1.69-.073-4.949-.073zM5.838 12c0-3.403 2.759-6.162 6.162-6.162s6.162 2.759 6.162 6.162c0 3.403-2.759 6.162-6.162 6.162s-6.162-2.759-6.162-6.162zm2.889 0c0 1.821 1.452 3.273 3.273 3.273s3.273-1.452 3.273-3.273c0-1.821-1.452-3.273-3.273-3.273s-3.273 1.452-3.273 3.273zm9.754-6.5c0 .795.645 1.44 1.44 1.44s1.44-.645 1.44-1.44-.645-1.44-1.44-1.44-1.44.645-1.44 1.44z"/></svg>